<svg xmlns="http://www.w3.org/2000/svg" viewBox="0 0 324.55 108.41"><defs><style>.a{font-size:70px;font-family:PinyonScript, Pinyon Script;}.a,.b{fill:#fff;}.b{font-size:17px;font-family:Raleway-Regular, Raleway;letter-spacing:0.05em;}.c{letter-spacing:0.04em;}.d{letter-spacing:0.05em;}.e{letter-spacing:0.04em;}.f{letter-spacing:0.05em;}.g{fill:#04c4d9;}.g,.h{stroke:#fff;stroke-miterlimit:10;}.h{fill:#0367a6;}</style></defs><title>ob-logo-wht</title><text class="a" transform="translate(52.59 75.38)">Outbound</text><text class="b" transform="translate(108.06 97.46) scale(1.82 1)">PROPE<tspan class="c" x="59.62" y="0">R</tspan><tspan class="d" x="71.38" y="0">TI</tspan><tspan class="e" x="87.67" y="0">E</tspan><tspan class="f" x="98.62" y="0">S</tspan></text><path class="g" d="M92.77,97.42c-35.71-4.09-61.08-25.09-56.66-46.9s36.94-36.17,72.65-32.07c1.3.14,2.57.32,3.84.51A105.51,105.51,0,0,0,85,12.08C46,7.61,10.57,23.27,5.76,47S28.6,93.71,67.53,98.17a112.8,112.8,0,0,0,29.1-.38C95.35,97.69,94.06,97.57,92.77,97.42Z"/><path class="h" d="M86.57,97.5C45.8,94.33,15.77,72.74,22,45.34,27.56,20.59,69.2,4,104.86,7.89c1.29.14,2.57.31,3.83.51A92.65,92.65,0,0,0,81.17,1.12c-38.88-4.3-74.7,14.23-80,41.39S22.38,93.38,61.26,97.67c10.08,1.12,20,1.88,29.17.18C89.15,97.76,87.87,97.61,86.57,97.5Z"/></svg>